<?xml version="1.0" standalone="no"?>
<!DOCTYPE svg PUBLIC "-//W3C//DTD SVG 20010904//EN"
 "http://www.w3.org/TR/2001/REC-SVG-20010904/DTD/svg10.dtd">
<svg version="1.0" xmlns="http://www.w3.org/2000/svg"
 width="300.000000pt" height="300.000000pt" viewBox="0 0 300.000000 300.000000"
 preserveAspectRatio="xMidYMid meet">
<metadata>
Created by potrace 1.10, written by Peter Selinger 2001-2011
</metadata>
<g transform="translate(0.000000,300.000000) scale(0.050000,-0.050000)"
fill="#000000" stroke="none">
<path d="M1845 5319 c-525 -262 -639 -1216 -202 -1690 325 -352 838 -247 1067
218 396 805 -193 1808 -865 1472z"/>
<path d="M3645 5331 c-554 -258 -653 -1286 -166 -1737 492 -455 1144 3 1144
806 0 687 -493 1157 -978 931z"/>
<path d="M526 3830 c-634 -320 -330 -1532 385 -1532 503 0 752 628 464 1169
-186 349 -561 509 -849 363z"/>
<path d="M5033 3849 c-373 -137 -613 -653 -502 -1080 161 -619 900 -633 1187
-22 300 640 -116 1311 -685 1102z"/>
<path d="M2860 3268 c-506 -86 -870 -326 -1154 -761 -707 -1085 -284 -2126
745 -1828 381 111 763 106 1144 -12 585 -183 1119 253 1057 863 -102 1006
-997 1874 -1792 1738z"/>
</g>
</svg>
